{"title":"Trust.2010.LIMITED.720p.BRRip.x264.Feel-Free ","uid":6496204,"size":2659995496,"categoryP":"video","categoryS":"hd___movies","magnet":"?xt=urn:btih:da16ad8498256b2986b544a84dcfd8780f60f8d4&amp;dn=Trust.2010.LIMITED.720p.BRRip.x264.Feel-Free+&amp;tr=udp%3A%2F%2Ftracker.openbittorrent.com%3A80&amp;tr=udp%3A%2F%2Fopen.demonii.com%3A1337&amp;tr=udp%3A%2F%2Ftracker.coppersurfer.tk%3A6969&amp;tr=udp%3A%2F%2Fexodus.desync.com%3A6969","seeders":0,"leechers":1,"uploader":"TPBAgri","files":-1,"time":1309082066,"description":"Genre:Drama | Thriller\nLanguage:English\nIMDb:http://www.imdb.com/title/tt1529572/\nSource:LIMITED.720p.Bluray.x264-MHD Thanks!\n\nFormat : MPEG-4\nFormat profile : Base Media\nCodec ID : isom\nFile size : 2.47 GiB\nDuration : 1h 45mn\nOverall bit rate : 3 353 Kbps\n\nVideo\nID : 1\nFormat : AVC\nFormat/Info : Advanced Video Codec\nFormat profile : &lt;a class=&quot;__cf_email__&quot; href=&quot;/cdn-cgi/l/email-protection&quot; data-cfemail=&quot;5c14353b341c1068726d&quot;&gt;[email&amp;#160;protected]&lt;/a&gt;&lt;script cf-hash='f9e31' type=&quot;text/javascript&quot;&gt;\n/* &lt;![CDATA[ */!function(){try{var t=&quot;currentScript&quot;in document?document.currentScript:function(){for(var t=document.getElementsByTagName(&quot;script&quot;),e=t.length;e--;)if(t[e].getAttribute(&quot;cf-hash&quot;))return t[e]}();if(t&amp;&amp;t.previousSibling){var e,r,n,i,c=t.previousSibling,a=c.getAttribute(&quot;data-cfemail&quot;);if(a){for(e=&quot;&quot;,r=parseInt(a.substr(0,2),16),n=2;a.length-n;n+=2)i=parseInt(a.substr(n,2),16)^r,e+=String.fromCharCode(i);e=document.createTextNode(e),c.parentNode.replaceChild(e,c)}}}catch(u){}}();/* ]]&gt; */&lt;/script&gt;\nFormat settings, CABAC : Yes\nFormat settings, ReFrames : 3 frames\nCodec ID : avc1\nCodec ID/Info : Advanced Video Coding\nDuration : 1h 45mn\nBit rate mode : Variable\nBit rate : 3 000 Kbps\nMaximum bit rate : 15.0 Mbps\nWidth : 1 280 pixels\nHeight : 528 pixels\nDisplay aspect ratio : 2.40:1\nFrame rate mode : Constant\nFrame rate : 23.976 fps\nColor space : YUV\nChroma subsampling : 4:2:0\nBit depth : 8 bits\nScan type : Progressive\nBits/(Pixel*Frame) : 0.185\nStream size : 2.14 GiB (87%)\nWriting library : x264\n\nAudio\nID : 2\nFormat : AAC\nFormat/Info : Advanced Audio Codec\nFormat version : Version 4\nFormat profile : LC\nFormat settings, SBR : No\nCodec ID : 40\nDuration : 1h 45mn\nBit rate mode : Variable\nBit rate : 443 Kbps\nMaximum bit rate : 559 Kbps\nChannel(s) : 6 channels\nChannel positions : Front: L C R, Side: L R, LFE\nSampling rate : 48.0 KHz\nStream size : 334 MiB (13%)\n\n\nPlot:\nA teenage girl is targeted by an online sexual predator\n\n\n &lt;a href=&quot;\nhttp://leetleech.org/images/78673660227160055660.png&quot; rel=&quot;nofollow&quot; target=&quot;_NEW&quot;&gt;\nhttp://leetleech.org/images/78673660227160055660.png&lt;/a&gt;\n &lt;a href=&quot;\nhttp://leetleech.org/images/87184132956710296542.png&quot; rel=&quot;nofollow&quot; target=&quot;_NEW&quot;&gt;\nhttp://leetleech.org/images/87184132956710296542.png&lt;/a&gt;\n &lt;a href=&quot;\nhttp://leetleech.org/images/78039439170505973886.png&quot; rel=&quot;nofollow&quot; target=&quot;_NEW&quot;&gt;\nhttp://leetleech.org/images/78039439170505973886.png&lt;/a&gt;\n &lt;a href=&quot;\nhttp://leetleech.org/images/85494841195400304541.png&quot; rel=&quot;nofollow&quot; target=&quot;_NEW&quot;&gt;\nhttp://leetleech.org/images/85494841195400304541.png&lt;/a&gt;","torrent":{"xt":"urn:btih:da16ad8498256b2986b544a84dcfd8780f60f8d4","amp;dn":"Trust.2010.LIMITED.720p.BRRip.x264.Feel-Free+","amp;tr":["udp%3A%2F%2Ftracker.openbittorrent.com%3A80","udp%3A%2F%2Fopen.demonii.com%3A1337","udp%3A%2F%2Ftracker.coppersurfer.tk%3A6969","udp%3A%2F%2Fexodus.desync.com%3A6969"],"infoHash":"da16ad8498256b2986b544a84dcfd8780f60f8d4","infoHashBuffer":{"type":"Buffer","data":[218,22,173,132,152,37,107,41,134,181,68,168,77,207,216,120,15,96,248,212]},"announce":[],"urlList":[]}}